<svg xmlns="http://www.w3.org/2000/svg" xmlns:xlink="http://www.w3.org/1999/xlink" width="500" zoomAndPan="magnify" viewBox="0 0 375 374.999991" height="500" preserveAspectRatio="xMidYMid meet" version="1.0"><defs><g/><clipPath id="7373a948fb"><path d="M 175 65.085938 L 200 65.085938 L 200 90 L 175 90 Z M 175 65.085938 " clip-rule="nonzero"/></clipPath><clipPath id="85330f4fca"><path d="M 140.898438 83 L 235 83 L 235 177 L 140.898438 177 Z M 140.898438 83 " clip-rule="nonzero"/></clipPath><clipPath id="ad08dee034"><path d="M 140.898438 83 L 185 83 L 185 128 L 140.898438 128 Z M 140.898438 83 " clip-rule="nonzero"/></clipPath><clipPath id="f658fd6e9e"><path d="M 178 62.390625 L 203 62.390625 L 203 87 L 178 87 Z M 178 62.390625 " clip-rule="nonzero"/></clipPath><clipPath id="af6c4aea97"><path d="M 143.59375 80 L 238 80 L 238 174 L 143.59375 174 Z M 143.59375 80 " clip-rule="nonzero"/></clipPath><clipPath id="cfbdc49812"><path d="M 143.59375 80 L 188 80 L 188 125 L 143.59375 125 Z M 143.59375 80 " clip-rule="nonzero"/></clipPath></defs><g clip-path="url(#7373a948fb)"><path fill="#ffffff" d="M 199.597656 77.207031 C 199.597656 77.988281 199.519531 78.761719 199.367188 79.527344 C 199.214844 80.292969 198.988281 81.039062 198.691406 81.761719 C 198.390625 82.484375 198.023438 83.167969 197.589844 83.820312 C 197.15625 84.46875 196.660156 85.070312 196.109375 85.625 C 195.554688 86.175781 194.953125 86.671875 194.304688 87.105469 C 193.65625 87.539062 192.96875 87.90625 192.246094 88.203125 C 191.523438 88.503906 190.78125 88.730469 190.011719 88.882812 C 189.246094 89.035156 188.472656 89.109375 187.691406 89.109375 C 186.910156 89.109375 186.132812 89.035156 185.367188 88.882812 C 184.601562 88.730469 183.855469 88.503906 183.132812 88.203125 C 182.414062 87.90625 181.726562 87.539062 181.074219 87.105469 C 180.425781 86.671875 179.824219 86.175781 179.273438 85.625 C 178.71875 85.070312 178.226562 84.46875 177.792969 83.820312 C 177.355469 83.167969 176.992188 82.484375 176.691406 81.761719 C 176.390625 81.039062 176.167969 80.292969 176.015625 79.527344 C 175.859375 78.761719 175.785156 77.988281 175.785156 77.207031 C 175.785156 76.421875 175.859375 75.648438 176.015625 74.882812 C 176.167969 74.117188 176.390625 73.371094 176.691406 72.648438 C 176.992188 71.925781 177.355469 71.242188 177.792969 70.589844 C 178.226562 69.941406 178.71875 69.339844 179.273438 68.785156 C 179.824219 68.234375 180.425781 67.742188 181.074219 67.304688 C 181.726562 66.871094 182.414062 66.503906 183.132812 66.207031 C 183.855469 65.90625 184.601562 65.679688 185.367188 65.527344 C 186.132812 65.375 186.910156 65.300781 187.691406 65.300781 C 188.472656 65.300781 189.246094 65.375 190.011719 65.527344 C 190.78125 65.679688 191.523438 65.90625 192.246094 66.207031 C 192.96875 66.503906 193.65625 66.871094 194.304688 67.304688 C 194.953125 67.742188 195.554688 68.234375 196.109375 68.785156 C 196.660156 69.339844 197.15625 69.941406 197.589844 70.589844 C 198.023438 71.242188 198.390625 71.925781 198.691406 72.648438 C 198.988281 73.371094 199.214844 74.117188 199.367188 74.882812 C 199.519531 75.648438 199.597656 76.421875 199.597656 77.207031 Z M 199.597656 77.207031 " fill-opacity="1" fill-rule="nonzero"/></g><path fill="#ffffff" d="M 199.597656 184.632812 C 199.597656 185.414062 199.519531 186.1875 199.367188 186.953125 C 199.214844 187.722656 198.988281 188.464844 198.691406 189.1875 C 198.390625 189.910156 198.023438 190.597656 197.589844 191.246094 C 197.15625 191.898438 196.660156 192.496094 196.109375 193.050781 C 195.554688 193.605469 194.953125 194.097656 194.304688 194.53125 C 193.65625 194.964844 192.96875 195.332031 192.246094 195.632812 C 191.523438 195.929688 190.78125 196.15625 190.011719 196.308594 C 189.246094 196.460938 188.472656 196.539062 187.691406 196.539062 C 186.910156 196.539062 186.132812 196.460938 185.367188 196.308594 C 184.601562 196.15625 183.855469 195.929688 183.132812 195.632812 C 182.414062 195.332031 181.726562 194.964844 181.074219 194.53125 C 180.425781 194.097656 179.824219 193.605469 179.273438 193.050781 C 178.71875 192.496094 178.226562 191.898438 177.792969 191.246094 C 177.355469 190.597656 176.992188 189.910156 176.691406 189.1875 C 176.390625 188.464844 176.167969 187.722656 176.015625 186.953125 C 175.859375 186.1875 175.785156 185.414062 175.785156 184.632812 C 175.785156 183.851562 175.859375 183.078125 176.015625 182.308594 C 176.167969 181.542969 176.390625 180.796875 176.691406 180.078125 C 176.992188 179.355469 177.355469 178.667969 177.792969 178.019531 C 178.226562 177.367188 178.71875 176.765625 179.273438 176.214844 C 179.824219 175.660156 180.425781 175.167969 181.074219 174.734375 C 181.726562 174.300781 182.414062 173.933594 183.132812 173.632812 C 183.855469 173.332031 184.601562 173.109375 185.367188 172.957031 C 186.132812 172.804688 186.910156 172.726562 187.691406 172.726562 C 188.472656 172.726562 189.246094 172.804688 190.011719 172.957031 C 190.78125 173.109375 191.523438 173.332031 192.246094 173.632812 C 192.96875 173.933594 193.65625 174.300781 194.304688 174.734375 C 194.953125 175.167969 195.554688 175.660156 196.109375 176.214844 C 196.660156 176.765625 197.15625 177.367188 197.589844 178.019531 C 198.023438 178.667969 198.390625 179.355469 198.691406 180.078125 C 198.988281 180.796875 199.214844 181.542969 199.367188 182.308594 C 199.519531 183.078125 199.597656 183.851562 199.597656 184.632812 Z M 199.597656 184.632812 " fill-opacity="1" fill-rule="nonzero"/><g clip-path="url(#85330f4fca)"><path fill="#30cee4" d="M 230.035156 87.460938 C 229.328125 86.757812 228.5625 86.132812 227.738281 85.582031 C 226.910156 85.03125 226.035156 84.566406 225.117188 84.1875 C 224.199219 83.808594 223.253906 83.523438 222.277344 83.328125 C 221.304688 83.136719 220.320312 83.039062 219.324219 83.039062 C 218.332031 83.039062 217.347656 83.136719 216.371094 83.328125 C 215.398438 83.523438 214.449219 83.808594 213.53125 84.1875 C 212.613281 84.566406 211.742188 85.03125 210.914062 85.582031 C 210.085938 86.132812 209.320312 86.757812 208.617188 87.460938 L 145.347656 150.667969 C 144.640625 151.371094 144.011719 152.132812 143.460938 152.960938 C 142.90625 153.785156 142.4375 154.660156 142.054688 155.578125 C 141.675781 156.496094 141.386719 157.445312 141.191406 158.417969 C 140.996094 159.394531 140.902344 160.378906 140.902344 161.375 C 140.902344 162.371094 140.996094 163.355469 141.191406 164.332031 C 141.386719 165.308594 141.675781 166.253906 142.054688 167.171875 C 142.4375 168.09375 142.90625 168.964844 143.460938 169.792969 C 144.011719 170.617188 144.640625 171.382812 145.347656 172.085938 C 146.050781 172.785156 146.816406 173.410156 147.644531 173.960938 C 148.472656 174.511719 149.34375 174.976562 150.261719 175.355469 C 151.183594 175.734375 152.128906 176.023438 153.101562 176.214844 C 154.078125 176.40625 155.0625 176.503906 156.054688 176.503906 C 157.050781 176.503906 158.035156 176.40625 159.007812 176.214844 C 159.984375 176.023438 160.929688 175.734375 161.847656 175.355469 C 162.765625 174.976562 163.640625 174.511719 164.46875 173.960938 C 165.292969 173.410156 166.058594 172.785156 166.765625 172.085938 L 230.035156 108.929688 C 230.738281 108.222656 231.367188 107.457031 231.917969 106.628906 C 232.472656 105.796875 232.9375 104.921875 233.320312 104.003906 C 233.703125 103.082031 233.988281 102.132812 234.183594 101.15625 C 234.378906 100.179688 234.472656 99.191406 234.472656 98.195312 C 234.472656 97.199219 234.378906 96.210938 234.183594 95.234375 C 233.988281 94.257812 233.703125 93.308594 233.320312 92.386719 C 232.9375 91.464844 232.472656 90.589844 231.917969 89.761719 C 231.367188 88.933594 230.738281 88.164062 230.035156 87.460938 Z M 230.035156 87.460938 " fill-opacity="1" fill-rule="nonzero"/></g><g clip-path="url(#ad08dee034)"><path fill="#30cee4" d="M 163.578125 127.171875 L 184.996094 105.753906 L 166.828125 87.460938 C 166.125 86.757812 165.355469 86.132812 164.53125 85.582031 C 163.703125 85.03125 162.828125 84.566406 161.910156 84.1875 C 160.992188 83.808594 160.046875 83.523438 159.070312 83.328125 C 158.097656 83.136719 157.113281 83.039062 156.117188 83.039062 C 155.125 83.039062 154.140625 83.136719 153.167969 83.328125 C 152.191406 83.523438 151.246094 83.808594 150.328125 84.1875 C 149.40625 84.566406 148.535156 85.03125 147.707031 85.582031 C 146.878906 86.132812 146.113281 86.757812 145.410156 87.460938 C 144.707031 88.164062 144.074219 88.925781 143.523438 89.753906 C 142.96875 90.582031 142.5 91.453125 142.121094 92.371094 C 141.738281 93.289062 141.449219 94.238281 141.253906 95.214844 C 141.0625 96.1875 140.964844 97.175781 140.964844 98.167969 C 140.964844 99.164062 141.0625 100.148438 141.253906 101.125 C 141.449219 102.101562 141.738281 103.046875 142.121094 103.96875 C 142.5 104.886719 142.96875 105.757812 143.523438 106.585938 C 144.074219 107.410156 144.707031 108.175781 145.410156 108.878906 Z M 163.578125 127.171875 " fill-opacity="1" fill-rule="nonzero"/></g><path fill="#30cee4" d="M 211.792969 132.4375 L 190.375 153.855469 L 208.554688 172.132812 C 209.257812 172.835938 210.023438 173.460938 210.851562 174.011719 C 211.679688 174.5625 212.550781 175.027344 213.46875 175.40625 C 214.386719 175.785156 215.335938 176.070312 216.308594 176.265625 C 217.285156 176.457031 218.269531 176.554688 219.261719 176.554688 C 220.253906 176.554688 221.238281 176.457031 222.214844 176.265625 C 223.191406 176.070312 224.136719 175.785156 225.054688 175.40625 C 225.972656 175.027344 226.847656 174.5625 227.671875 174.011719 C 228.5 173.460938 229.265625 172.835938 229.972656 172.132812 C 230.671875 171.429688 231.296875 170.664062 231.847656 169.835938 C 232.394531 169.007812 232.859375 168.136719 233.238281 167.21875 C 233.617188 166.300781 233.902344 165.351562 234.097656 164.378906 C 234.289062 163.402344 234.386719 162.417969 234.386719 161.425781 C 234.386719 160.433594 234.289062 159.449219 234.097656 158.472656 C 233.902344 157.5 233.617188 156.554688 233.238281 155.632812 C 232.859375 154.714844 232.394531 153.84375 231.847656 153.015625 C 231.296875 152.1875 230.671875 151.421875 229.972656 150.71875 Z M 211.792969 132.4375 " fill-opacity="1" fill-rule="nonzero"/><g fill="#30cee4" fill-opacity="1"><g transform="translate(42.520039, 177.409267)"><g><path d="M 65.71875 -89.90625 C 66.53125 -91.40625 67.742188 -92.410156 69.359375 -92.921875 C 70.984375 -93.429688 73.007812 -93.6875 75.4375 -93.6875 C 77.875 -93.6875 79.835938 -93.472656 81.328125 -93.046875 C 82.828125 -92.617188 83.9375 -92.101562 84.65625 -91.5 C 85.382812 -90.90625 85.921875 -90.015625 86.265625 -88.828125 C 86.773438 -87.453125 87.03125 -85.273438 87.03125 -82.296875 L 87.03125 -11.265625 C 87.03125 -9.210938 86.960938 -7.71875 86.828125 -6.78125 C 86.703125 -5.84375 86.300781 -4.734375 85.625 -3.453125 C 84.425781 -1.148438 81.097656 0 75.640625 0 C 72.304688 0 70 -0.253906 68.71875 -0.765625 C 67.445312 -1.273438 66.382812 -2.085938 65.53125 -3.203125 C 46.332031 -28.796875 33.703125 -45.519531 27.640625 -53.375 L 27.640625 -11.265625 C 27.640625 -9.210938 27.578125 -7.71875 27.453125 -6.78125 C 27.328125 -5.84375 26.921875 -4.734375 26.234375 -3.453125 C 25.035156 -1.148438 21.707031 0 16.25 0 C 10.957031 0 7.71875 -1.148438 6.53125 -3.453125 C 5.84375 -4.734375 5.4375 -5.882812 5.3125 -6.90625 C 5.1875 -7.9375 5.125 -9.429688 5.125 -11.390625 L 5.125 -82.8125 C 5.125 -86.050781 5.523438 -88.414062 6.328125 -89.90625 C 7.140625 -91.40625 8.359375 -92.410156 9.984375 -92.921875 C 11.609375 -93.429688 13.695312 -93.6875 16.25 -93.6875 C 18.8125 -93.6875 20.835938 -93.453125 22.328125 -92.984375 C 23.828125 -92.515625 24.875 -91.976562 25.46875 -91.375 C 25.8125 -91.125 26.789062 -90.015625 28.40625 -88.046875 C 46.414062 -63.566406 58.445312 -47.398438 64.5 -39.546875 L 64.5 -82.8125 C 64.5 -86.050781 64.90625 -88.414062 65.71875 -89.90625 Z M 65.71875 -89.90625 "/></g></g></g><g fill="#30cee4" fill-opacity="1"><g transform="translate(240.316645, 177.409267)"><g><path d="M 11.265625 -93.9375 L 82.421875 -93.9375 C 85.148438 -93.9375 87.15625 -93.613281 88.4375 -92.96875 C 89.71875 -92.332031 90.570312 -91.332031 91 -89.96875 C 91.425781 -88.601562 91.640625 -86.8125 91.640625 -84.59375 C 91.640625 -82.375 91.425781 -80.601562 91 -79.28125 C 90.570312 -77.957031 89.847656 -77.039062 88.828125 -76.53125 C 87.285156 -75.757812 85.109375 -75.375 82.296875 -75.375 L 57.84375 -75.375 L 57.84375 -11 C 57.84375 -9.039062 57.78125 -7.59375 57.65625 -6.65625 C 57.53125 -5.71875 57.144531 -4.628906 56.5 -3.390625 C 55.863281 -2.148438 54.734375 -1.273438 53.109375 -0.765625 C 51.492188 -0.253906 49.363281 0 46.71875 0 C 44.070312 0 41.957031 -0.253906 40.375 -0.765625 C 38.800781 -1.273438 37.691406 -2.148438 37.046875 -3.390625 C 36.410156 -4.628906 36.023438 -5.738281 35.890625 -6.71875 C 35.765625 -7.695312 35.703125 -9.171875 35.703125 -11.140625 L 35.703125 -75.375 L 11.140625 -75.375 C 8.410156 -75.375 6.40625 -75.691406 5.125 -76.328125 C 3.84375 -76.972656 2.988281 -77.976562 2.5625 -79.34375 C 2.132812 -80.707031 1.921875 -82.5 1.921875 -84.71875 C 1.921875 -86.9375 2.132812 -88.707031 2.5625 -90.03125 C 2.988281 -91.351562 3.710938 -92.269531 4.734375 -92.78125 C 6.273438 -93.550781 8.453125 -93.9375 11.265625 -93.9375 Z M 11.265625 -93.9375 "/></g></g></g><g fill="#30cee4" fill-opacity="1"><g transform="translate(42.8959, 290.53098)"><g><path d="M 54.015625 -56.5625 L 76.53125 -56.5625 C 81.144531 -56.394531 83.960938 -55.203125 84.984375 -52.984375 C 85.835938 -51.359375 86.265625 -48.96875 86.265625 -45.8125 L 86.265625 -17.65625 C 86.265625 -14.925781 85.066406 -12.328125 82.671875 -9.859375 C 75.503906 -2.429688 64.753906 1.28125 50.421875 1.28125 C 37.710938 1.28125 26.664062 -3.515625 17.28125 -13.109375 C 7.894531 -22.710938 3.203125 -34.296875 3.203125 -47.859375 C 3.203125 -61.429688 7.976562 -72.757812 17.53125 -81.84375 C 27.09375 -90.925781 38.359375 -95.46875 51.328125 -95.46875 C 61.390625 -95.46875 70.898438 -92.144531 79.859375 -85.5 C 82.160156 -83.789062 83.3125 -81.890625 83.3125 -79.796875 C 83.3125 -77.703125 82.332031 -75.289062 80.375 -72.5625 C 77.039062 -68.039062 74.007812 -65.78125 71.28125 -65.78125 C 69.664062 -65.78125 67.066406 -66.953125 63.484375 -69.296875 C 59.898438 -71.648438 55.632812 -72.828125 50.6875 -72.828125 C 44.195312 -72.828125 38.4375 -70.539062 33.40625 -65.96875 C 28.375 -61.40625 25.859375 -55.429688 25.859375 -48.046875 C 25.859375 -40.671875 28.414062 -34.398438 33.53125 -29.234375 C 38.65625 -24.078125 44.457031 -21.5 50.9375 -21.5 C 55.632812 -21.5 59.859375 -22.269531 63.609375 -23.8125 L 63.609375 -37.75 L 53.5 -37.75 C 50.851562 -37.75 48.972656 -38.085938 47.859375 -38.765625 C 46.753906 -39.453125 46.03125 -40.457031 45.6875 -41.78125 C 45.34375 -43.101562 45.171875 -44.894531 45.171875 -47.15625 C 45.171875 -49.414062 45.363281 -51.226562 45.75 -52.59375 C 46.132812 -53.96875 46.835938 -54.910156 47.859375 -55.421875 C 49.398438 -56.179688 51.453125 -56.5625 54.015625 -56.5625 Z M 54.015625 -56.5625 "/></g></g></g><g fill="#30cee4" fill-opacity="1"><g transform="translate(145.00501, 290.53098)"><g><path d="M 27.765625 -22.65625 L 67.1875 -22.65625 C 69.15625 -22.65625 70.628906 -22.585938 71.609375 -22.453125 C 72.585938 -22.328125 73.71875 -21.925781 75 -21.25 C 77.300781 -20.050781 78.453125 -16.722656 78.453125 -11.265625 C 78.453125 -5.285156 76.875 -1.785156 73.71875 -0.765625 C 72.269531 -0.253906 70.050781 0 67.0625 0 L 16.375 0 C 10.40625 0 6.910156 -1.617188 5.890625 -4.859375 C 5.378906 -6.222656 5.125 -8.398438 5.125 -11.390625 L 5.125 -82.546875 C 5.125 -86.898438 5.929688 -89.863281 7.546875 -91.4375 C 9.171875 -93.019531 12.242188 -93.8125 16.765625 -93.8125 L 67.1875 -93.8125 C 69.15625 -93.8125 70.628906 -93.742188 71.609375 -93.609375 C 72.585938 -93.484375 73.71875 -93.082031 75 -92.40625 C 77.300781 -91.207031 78.453125 -87.878906 78.453125 -82.421875 C 78.453125 -76.453125 76.875 -72.953125 73.71875 -71.921875 C 72.269531 -71.410156 70.050781 -71.15625 67.0625 -71.15625 L 27.765625 -71.15625 L 27.765625 -58.234375 L 53.109375 -58.234375 C 55.078125 -58.234375 56.550781 -58.164062 57.53125 -58.03125 C 58.507812 -57.90625 59.640625 -57.503906 60.921875 -56.828125 C 63.222656 -55.628906 64.375 -52.300781 64.375 -46.84375 C 64.375 -40.875 62.753906 -37.375 59.515625 -36.34375 C 58.066406 -35.832031 55.847656 -35.578125 52.859375 -35.578125 L 27.765625 -35.578125 Z M 27.765625 -22.65625 "/></g></g></g><g fill="#30cee4" fill-opacity="1"><g transform="translate(235.379183, 290.53098)"><g><path d="M 65.71875 -89.90625 C 66.53125 -91.40625 67.742188 -92.410156 69.359375 -92.921875 C 70.984375 -93.429688 73.007812 -93.6875 75.4375 -93.6875 C 77.875 -93.6875 79.835938 -93.472656 81.328125 -93.046875 C 82.828125 -92.617188 83.9375 -92.101562 84.65625 -91.5 C 85.382812 -90.90625 85.921875 -90.015625 86.265625 -88.828125 C 86.773438 -87.453125 87.03125 -85.273438 87.03125 -82.296875 L 87.03125 -11.265625 C 87.03125 -9.210938 86.960938 -7.71875 86.828125 -6.78125 C 86.703125 -5.84375 86.300781 -4.734375 85.625 -3.453125 C 84.425781 -1.148438 81.097656 0 75.640625 0 C 72.304688 0 70 -0.253906 68.71875 -0.765625 C 67.445312 -1.273438 66.382812 -2.085938 65.53125 -3.203125 C 46.332031 -28.796875 33.703125 -45.519531 27.640625 -53.375 L 27.640625 -11.265625 C 27.640625 -9.210938 27.578125 -7.71875 27.453125 -6.78125 C 27.328125 -5.84375 26.921875 -4.734375 26.234375 -3.453125 C 25.035156 -1.148438 21.707031 0 16.25 0 C 10.957031 0 7.71875 -1.148438 6.53125 -3.453125 C 5.84375 -4.734375 5.4375 -5.882812 5.3125 -6.90625 C 5.1875 -7.9375 5.125 -9.429688 5.125 -11.390625 L 5.125 -82.8125 C 5.125 -86.050781 5.523438 -88.414062 6.328125 -89.90625 C 7.140625 -91.40625 8.359375 -92.410156 9.984375 -92.921875 C 11.609375 -93.429688 13.695312 -93.6875 16.25 -93.6875 C 18.8125 -93.6875 20.835938 -93.453125 22.328125 -92.984375 C 23.828125 -92.515625 24.875 -91.976562 25.46875 -91.375 C 25.8125 -91.125 26.789062 -90.015625 28.40625 -88.046875 C 46.414062 -63.566406 58.445312 -47.398438 64.5 -39.546875 L 64.5 -82.8125 C 64.5 -86.050781 64.90625 -88.414062 65.71875 -89.90625 Z M 65.71875 -89.90625 "/></g></g></g><g clip-path="url(#f658fd6e9e)"><path fill="#ffffff" d="M 202.289062 74.511719 C 202.289062 75.292969 202.210938 76.066406 202.058594 76.835938 C 201.90625 77.601562 201.683594 78.347656 201.382812 79.066406 C 201.082031 79.789062 200.71875 80.476562 200.28125 81.125 C 199.847656 81.777344 199.355469 82.378906 198.800781 82.929688 C 198.25 83.484375 197.648438 83.976562 196.996094 84.410156 C 196.347656 84.84375 195.660156 85.210938 194.941406 85.511719 C 194.21875 85.8125 193.472656 86.035156 192.707031 86.1875 C 191.941406 86.339844 191.164062 86.417969 190.382812 86.417969 C 189.601562 86.417969 188.828125 86.339844 188.0625 86.1875 C 187.292969 86.035156 186.550781 85.8125 185.828125 85.511719 C 185.105469 85.210938 184.417969 84.84375 183.769531 84.410156 C 183.121094 83.976562 182.519531 83.484375 181.964844 82.929688 C 181.414062 82.378906 180.917969 81.777344 180.484375 81.125 C 180.050781 80.476562 179.683594 79.789062 179.382812 79.066406 C 179.085938 78.347656 178.859375 77.601562 178.707031 76.835938 C 178.554688 76.066406 178.476562 75.292969 178.476562 74.511719 C 178.476562 73.730469 178.554688 72.957031 178.707031 72.191406 C 178.859375 71.421875 179.085938 70.679688 179.382812 69.957031 C 179.683594 69.234375 180.050781 68.546875 180.484375 67.898438 C 180.917969 67.246094 181.414062 66.648438 181.964844 66.09375 C 182.519531 65.542969 183.121094 65.046875 183.769531 64.613281 C 184.417969 64.179688 185.105469 63.8125 185.828125 63.511719 C 186.550781 63.214844 187.292969 62.988281 188.0625 62.835938 C 188.828125 62.683594 189.601562 62.605469 190.382812 62.605469 C 191.164062 62.605469 191.941406 62.683594 192.707031 62.835938 C 193.472656 62.988281 194.21875 63.214844 194.941406 63.511719 C 195.660156 63.8125 196.347656 64.179688 196.996094 64.613281 C 197.648438 65.046875 198.25 65.542969 198.800781 66.09375 C 199.355469 66.648438 199.847656 67.246094 200.28125 67.898438 C 200.71875 68.546875 201.082031 69.234375 201.382812 69.957031 C 201.683594 70.679688 201.90625 71.421875 202.058594 72.191406 C 202.210938 72.957031 202.289062 73.730469 202.289062 74.511719 Z M 202.289062 74.511719 " fill-opacity="1" fill-rule="nonzero"/></g><path fill="#ffffff" d="M 202.289062 181.9375 C 202.289062 182.722656 202.210938 183.496094 202.058594 184.261719 C 201.90625 185.027344 201.683594 185.773438 201.382812 186.496094 C 201.082031 187.21875 200.71875 187.902344 200.28125 188.554688 C 199.847656 189.203125 199.355469 189.804688 198.800781 190.359375 C 198.25 190.910156 197.648438 191.402344 196.996094 191.839844 C 196.347656 192.273438 195.660156 192.640625 194.941406 192.9375 C 194.21875 193.238281 193.472656 193.464844 192.707031 193.617188 C 191.941406 193.769531 191.164062 193.84375 190.382812 193.84375 C 189.601562 193.84375 188.828125 193.769531 188.0625 193.617188 C 187.292969 193.464844 186.550781 193.238281 185.828125 192.9375 C 185.105469 192.640625 184.417969 192.273438 183.769531 191.839844 C 183.121094 191.402344 182.519531 190.910156 181.964844 190.359375 C 181.414062 189.804688 180.917969 189.203125 180.484375 188.554688 C 180.050781 187.902344 179.683594 187.21875 179.382812 186.496094 C 179.085938 185.773438 178.859375 185.027344 178.707031 184.261719 C 178.554688 183.496094 178.476562 182.722656 178.476562 181.9375 C 178.476562 181.15625 178.554688 180.382812 178.707031 179.617188 C 178.859375 178.851562 179.085938 178.105469 179.382812 177.382812 C 179.683594 176.660156 180.050781 175.976562 180.484375 175.324219 C 180.917969 174.675781 181.414062 174.074219 181.964844 173.519531 C 182.519531 172.96875 183.121094 172.472656 183.769531 172.039062 C 184.417969 171.605469 185.105469 171.238281 185.828125 170.941406 C 186.550781 170.640625 187.292969 170.414062 188.0625 170.261719 C 188.828125 170.109375 189.601562 170.035156 190.382812 170.035156 C 191.164062 170.035156 191.941406 170.109375 192.707031 170.261719 C 193.472656 170.414062 194.21875 170.640625 194.941406 170.941406 C 195.660156 171.238281 196.347656 171.605469 196.996094 172.039062 C 197.648438 172.472656 198.25 172.96875 198.800781 173.519531 C 199.355469 174.074219 199.847656 174.675781 200.28125 175.324219 C 200.71875 175.976562 201.082031 176.660156 201.382812 177.382812 C 201.683594 178.105469 201.90625 178.851562 202.058594 179.617188 C 202.210938 180.382812 202.289062 181.15625 202.289062 181.9375 Z M 202.289062 181.9375 " fill-opacity="1" fill-rule="nonzero"/><g clip-path="url(#af6c4aea97)"><path fill="#fb7610" d="M 232.726562 84.765625 C 232.023438 84.066406 231.257812 83.441406 230.429688 82.890625 C 229.601562 82.339844 228.730469 81.875 227.8125 81.496094 C 226.890625 81.117188 225.945312 80.832031 224.972656 80.636719 C 223.996094 80.445312 223.011719 80.347656 222.019531 80.347656 C 221.023438 80.347656 220.039062 80.445312 219.066406 80.636719 C 218.089844 80.832031 217.144531 81.117188 216.226562 81.496094 C 215.308594 81.875 214.433594 82.339844 213.605469 82.890625 C 212.78125 83.441406 212.015625 84.066406 211.308594 84.765625 L 148.039062 147.972656 C 147.335938 148.675781 146.707031 149.441406 146.152344 150.265625 C 145.597656 151.09375 145.132812 151.964844 144.75 152.886719 C 144.367188 153.804688 144.078125 154.75 143.886719 155.726562 C 143.691406 156.703125 143.59375 157.6875 143.59375 158.683594 C 143.59375 159.675781 143.691406 160.664062 143.886719 161.636719 C 144.078125 162.613281 144.367188 163.5625 144.75 164.480469 C 145.132812 165.398438 145.597656 166.269531 146.152344 167.097656 C 146.707031 167.925781 147.335938 168.6875 148.039062 169.390625 C 148.746094 170.09375 149.511719 170.71875 150.335938 171.269531 C 151.164062 171.820312 152.039062 172.285156 152.957031 172.664062 C 153.875 173.042969 154.820312 173.328125 155.796875 173.523438 C 156.769531 173.714844 157.753906 173.8125 158.75 173.8125 C 159.742188 173.8125 160.726562 173.714844 161.703125 173.523438 C 162.675781 173.328125 163.621094 173.042969 164.542969 172.664062 C 165.460938 172.285156 166.332031 171.820312 167.160156 171.269531 C 167.988281 170.71875 168.753906 170.09375 169.457031 169.390625 L 232.726562 106.234375 C 233.429688 105.53125 234.058594 104.761719 234.613281 103.933594 C 235.164062 103.105469 235.632812 102.230469 236.011719 101.308594 C 236.394531 100.386719 236.683594 99.4375 236.875 98.460938 C 237.070312 97.484375 237.167969 96.496094 237.167969 95.5 C 237.167969 94.503906 237.070312 93.519531 236.875 92.539062 C 236.683594 91.5625 236.394531 90.613281 236.011719 89.691406 C 235.632812 88.773438 235.164062 87.898438 234.613281 87.070312 C 234.058594 86.238281 233.429688 85.472656 232.726562 84.765625 Z M 232.726562 84.765625 " fill-opacity="1" fill-rule="nonzero"/></g><g clip-path="url(#cfbdc49812)"><path fill="#fb7610" d="M 166.269531 124.476562 L 187.6875 103.058594 L 169.519531 84.765625 C 168.816406 84.066406 168.050781 83.441406 167.222656 82.890625 C 166.394531 82.339844 165.523438 81.875 164.605469 81.496094 C 163.6875 81.117188 162.738281 80.832031 161.765625 80.636719 C 160.789062 80.445312 159.804688 80.347656 158.8125 80.347656 C 157.816406 80.347656 156.835938 80.445312 155.859375 80.636719 C 154.882812 80.832031 153.9375 81.117188 153.019531 81.496094 C 152.101562 81.875 151.226562 82.339844 150.402344 82.890625 C 149.574219 83.441406 148.808594 84.066406 148.101562 84.765625 C 147.398438 85.46875 146.769531 86.234375 146.214844 87.058594 C 145.660156 87.886719 145.195312 88.757812 144.8125 89.679688 C 144.429688 90.597656 144.144531 91.542969 143.949219 92.519531 C 143.753906 93.496094 143.65625 94.480469 143.65625 95.476562 C 143.65625 96.472656 143.753906 97.457031 143.949219 98.433594 C 144.144531 99.40625 144.429688 100.355469 144.8125 101.273438 C 145.195312 102.191406 145.660156 103.066406 146.214844 103.890625 C 146.769531 104.71875 147.398438 105.484375 148.101562 106.183594 Z M 166.269531 124.476562 " fill-opacity="1" fill-rule="nonzero"/></g><path fill="#fb7610" d="M 214.484375 129.742188 L 193.066406 151.160156 L 211.246094 169.441406 C 211.949219 170.140625 212.714844 170.769531 213.542969 171.320312 C 214.371094 171.871094 215.246094 172.335938 216.164062 172.714844 C 217.082031 173.09375 218.027344 173.378906 219.003906 173.570312 C 219.976562 173.765625 220.960938 173.863281 221.957031 173.863281 C 222.949219 173.863281 223.933594 173.765625 224.90625 173.570312 C 225.882812 173.378906 226.828125 173.09375 227.746094 172.714844 C 228.667969 172.335938 229.539062 171.871094 230.367188 171.320312 C 231.195312 170.769531 231.960938 170.140625 232.664062 169.441406 C 233.363281 168.738281 233.988281 167.96875 234.539062 167.144531 C 235.089844 166.316406 235.554688 165.441406 235.933594 164.523438 C 236.3125 163.605469 236.597656 162.660156 236.789062 161.683594 C 236.984375 160.710938 237.078125 159.726562 237.078125 158.734375 C 237.078125 157.738281 236.984375 156.753906 236.789062 155.78125 C 236.597656 154.804688 236.3125 153.859375 235.933594 152.941406 C 235.554688 152.023438 235.089844 151.148438 234.539062 150.324219 C 233.988281 149.496094 233.363281 148.730469 232.664062 148.023438 Z M 214.484375 129.742188 " fill-opacity="1" fill-rule="nonzero"/></svg>